# AST/ASF file generated using VICON BodyLanguage
# -----------------------------------------------
:version 1.10
:name VICON
:units
  mass 1.0
  length 0.45
  angle deg
:documentation
   .ast/.asf automatically generated from VICON data using
   VICON BodyBuilder and BodyLanguage model FoxedUp or BRILLIANT.MOD
:root
   order TX TY TZ RX RY RZ
   axis XYZ
   position 0 0 0  
   orientation 0 0 0 
:bonedata
  begin
     id 1 
     name lhipjoint
     direction 0.734343 -0.627749 0.258209 
     length 2.5437 
     axis 0 0 0  XYZ
  end
  begin
     id 2 
     name lfemur
     direction 0.34202 -0.939693 0  
     length 6.7391  
     axis 0 0 20  XYZ
    dof rx ry rz
    limits (-160.0 20.0)
           (-70.0 70.0)
           (-60.0 70.0)
  end
  begin
     id 3 
     name ltibia
     direction 0.34202 -0.939693 0   
     length 7.21536   
     axis 0 0 20   XYZ
    dof rx
    limits (-10.0 170.0)
  end
  begin
     id 4 
     name lfoot
     direction 0.0489572 -0.134509 0.989702   
     length 1.61313   
     axis -90 7.62852e-016 20   XYZ
    dof rx rz
    limits (-45.0 90.0)
           (-70.0 20.0)
  end
  begin
     id 5 
     name ltoes
     direction 1.53451e-011 -4.21692e-011 1   
     length 0.823104   
     axis -90 7.62852e-016 20   XYZ
    dof rx
    limits (-90.0 20.0)
  end
  begin
     id 6 
     name rhipjoint
     direction -0.746398 -0.615468 0.253157   
     length 2.59446  
     axis 0 0 0  XYZ 
  end
  begin
     id 7 
     name rfemur
     direction -0.34202 -0.939693 0   
     length 6.7075   
     axis 0 0 -20   XYZ
    dof rx ry rz
    limits (-160.0 20.0)
           (-70.0 70.0)
           (-70.0 60.0)
  end
  begin
     id 8 
     name rtibia
     direction -0.34202 -0.939693 0   
     length 7.27262   
     axis 0 0 -20   XYZ
    dof rx
    limits (-10.0 170.0)
 end
 begin
     id 9 
     name rfoot
     direction -0.0455203 -0.125066 0.991104   
     length 1.91095  
     axis -90 -7.62852e-016 -20   XYZ
    dof rx rz
    limits (-45.0 90.0)
           (-20.0 70.0)
  end
  begin
     id 10 
     name rtoes
     direction -1.53601e-011 -4.21913e-011 1   
     length 0.969037   
     axis -90 -7.62852e-016 -20   XYZ
    dof rx
    limits (-90.0 20.0)
  end
  begin
     id 11 
     name lowerback
     direction 0.0181546 0.999122 -0.0377542   
     length 1.99916   
     axis 0 0 0   XYZ
    dof rx ry rz
    limits (-20.0 45.0)
           (-30.0 30.0)
           (-30.0 30.0)
  end
  begin
     id 12 
     name upperback
     direction 0.0203486 0.99589 0.0882534   
     length 1.951   
     axis 0 0 0   XYZ
    dof rx ry rz
    limits (-20.0 45.0)
           (-30.0 30.0)
           (-30.0 30.0)
  end
  begin
     id 13 
     name thorax
     direction 0.0131685 0.994241 0.106355   
     length 1.97461   
     axis 0 0 0   XYZ
    dof rx ry rz
    limits (-20.0 45.0)
           (-30.0 30.0)
           (-30.0 30.0)
  end
  begin
     id 14 
     name lowerneck
     direction -0.0281395 0.999325 0.023617   
     length 1.7959   
     axis 0 0 0   XYZ
    dof rx ry rz
    limits (-20.0 45.0)
           (-30.0 30.0)
           (-30.0 30.0)
  end
  begin
     id 15 
     name upperneck
     direction 0.0288721 0.991984 -0.123019   
     length 1.79917   
     axis 0 0 0   XYZ
    dof rx ry rz
    limits (-20.0 45.0)
           (-30.0 30.0)
           (-30.0 30.0)
  end
  begin
     id 16
     name head
     direction 0.0133797 0.998944 -0.0439492  
     length 1.80902  
     axis 0 0 0   XYZ
    dof rx ry rz
    limits (-20.0 45.0)
           (-30.0 30.0)
           (-30.0 30.0)
  end
  begin
     id 17 
     name lclavicle
     direction 0.919195 0.377107 0.113449  
     length 3.17815  
     axis 0 0 0   XYZ
    dof ry rz
    limits (-20.0 10.0)
           (0.0 20.0)
  end
  begin
     id 18 
     name lhumerus
     direction 1 -4.48959e-011 2.13129e-027   
     length 4.84137   
     axis 180 -30 -90   XYZ
    dof rx ry rz
    limits (-60.0 90.0)
           (-90.0 90.0)
           (-90.0 90.0)
  end
  begin
     id 19
     name lradius
     direction 1 -4.48957e-011 -6.30627e-028   
     length 3.2452   
     axis 180 -30 -90   XYZ
    dof rx
    limits (-10.0 170.0)
  end
  begin
     id 20
     name lwrist
     direction 1 -4.4901e-011 9.13299e-027   
     length 1.6226   
     axis -6.84618e-015 90 90   XYZ
    dof ry
    limits (-180.0 0.0)
 end
  begin
     id 21 
     name lhand
     direction 1 -4.48816e-011 1.82293e-026   
     length 0.521221   
     axis -1.16502e-014 90 90   XYZ
    dof rx rz
    limits (-90.0 90.0)
           (-45.0 45.0)
  end
  begin
     id 22 
     name lfingers
     direction 1 -4.49108e-011 3.65687e-026   
     length 0.420221   
     axis -2.33008e-014 90 90   XYZ
    dof rx
    limits (0.0 90.0)
  end
  begin
     id 23
     name lthumb
     direction 0.707107 -6.34943e-011 0.707107   
     length 0.603356   
     axis -90 45 5.69224e-014   XYZ
    dof rx rz
    limits (-45.0 45.0)
           (-45.0 45.0)
  end
  begin
     id 24 
     name rclavicle
     direction -0.90847 0.38596 0.160368   
     length 3.12973  
     axis 0 0 0   XYZ 
    dof ry rz
    limits (-10.0 20.0)
           (-20.0 0.0)
  end
  begin
     id 25 
     name rhumerus
     direction -1 -4.48974e-011 4.47268e-028  
     length 4.72284   
     axis 180 30 90   XYZ
    dof rx ry rz
    limits (-90.0 60.0)
           (-90.0 90.0)
           (-90.0 90.0)
  end
  begin
     id 26 
     name rradius
     direction -1 -4.48969e-011 3.43203e-027   
     length 3.23459   
     axis 180 30 90   XYZ
    dof rx
    limits (-10.0 170.0)
  end
  begin
     id 27 
     name rwrist
     direction -1 -4.48969e-011 9.12911e-027   
     length 1.6173   
     axis -6.84618e-015 -90 -90   XYZ
    dof ry
    limits (-180.0 0.0)
  end
  begin
     id 28
     name rhand
     direction -1 -4.49194e-011 1.83006e-026   
     length 0.307416   
     axis -1.16502e-014 -90 -90   XYZ
    dof rx rz
    limits (-90.0 90.0)
           (-45.0 45.0)
  end
  begin
     id 29
     name rfingers
     direction -1 -4.48423e-011 3.63103e-026   
     length 0.247847   
     axis -2.33008e-014 -90 -90   XYZ
    dof rx
    limits (0.0 90.0)
  end
  begin
     id 30
     name rthumb
     direction -0.707107 -6.34802e-011 0.707107   
     length 0.35586   
     axis -90 -45 -5.69224e-014   XYZ
    dof rx rz
    limits (-45.0 45.0)
           (-45.0 45.0)
  end
:hierarchy
  begin
    root lhipjoint rhipjoint lowerback
    lhipjoint lfemur
    lfemur ltibia
    ltibia lfoot
    lfoot ltoes
    rhipjoint rfemur
    rfemur rtibia
    rtibia rfoot
    rfoot rtoes
    lowerback upperback
    upperback thorax
    thorax lowerneck lclavicle rclavicle
    lowerneck upperneck
    upperneck head
    lclavicle lhumerus
    lhumerus lradius
    lradius lwrist
    lwrist lhand lthumb
    lhand lfingers
    rclavicle rhumerus
    rhumerus rradius
    rradius rwrist
    rwrist rhand rthumb
    rhand rfingers
  end

#!OML:ASF H:\Terrain\Patient Classification 1\Animal1\Tuesday\Animal1.ASF
:FULLY-SPECIFIED
:DEGREES
713
root 19.3369 16.176 -17.4295 -169.734 -11.3 180.323
lowerback -5.90358 1.35829 -0.0428945
upperback -5.21493 1.45698 0.46108
thorax -2.07601 0.583527 0.561227
lowerneck -3.48919 15.512 6.01352
upperneck 20.3468 19.9917 -0.088577
head 7.46643 9.71446 0.582668
rclavicle -8.42971e-015 -5.96354e-016
rhumerus -46.5146 4.81782 -76.3964
rradius 25.198
rwrist -8.82778
rhand -17.2995 27.9948
rfingers 7.12502
rthumb 8.94632 -1.79552
lclavicle -8.42971e-015 -5.96354e-016
lhumerus -40.4601 4.55705 83.4455
lradius 35.2018
lwrist -26.5474
lhand 0.805743 39.6597
lfingers 7.12502
lthumb 26.3619 67.8473
rfemur -35.9436 -1.55508 21.4175
rtibia 70.4555
rfoot 3.62016 -11.912
rtoes -11.8861
lfemur -17.0928 -21.0982 -29.7506
ltibia 21.5997
lfoot -9.35613 14.9543
ltoes 5.65643
714
root 19.3058 16.1677 -17.5736 -169.806 -11.9194 180.532
lowerback -6.04185 1.32801 0.0806806
upperback -5.15922 1.41536 0.568797
thorax -1.94054 0.562292 0.604259
lowerneck -3.73672 15.4787 6.18766
upperneck 20.5805 19.9596 -0.272131
head 7.62388 9.68638 0.538273
rclavicle -2.64756e-014 -2.78299e-015
rhumerus -46.7077 4.50075 -76.1499
rradius 25.1367
rwrist -8.98125
rhand -16.4289 26.7604
rfingers 7.12502
rthumb 9.78638 -2.99218
lclavicle -2.64756e-014 -2.78299e-015
lhumerus -40.2244 4.4558 83.6393
lradius 35.6365
lwrist -26.6468
lhand 1.05572 39.9801
lfingers 7.12502
lthumb 26.6012 68.1316
rfemur -36.4027 -0.669905 21.4305
rtibia 69.0489
rfoot 2.15858 -13.1625
rtoes -5.43009
lfemur -16.6495 -21.4701 -29.7254
ltibia 22.0104
lfoot -9.31477 15.0261
ltoes 3.19546
715
root 19.2746 16.1523 -17.7174 -169.828 -12.6252 180.573
lowerback -6.21766 1.22001 0.0305497
upperback -5.07722 1.27875 0.676646
thorax -1.76045 0.499374 0.741063
lowerneck -3.95376 15.4479 6.16385
upperneck 20.6566 19.9498 -0.415347
head 7.69856 9.66518 0.520733
rclavicle 2.65253e-014 5.1684e-015
rhumerus -46.908 4.45484 -76.0339
rradius 25.1727
rwrist -9.25853
rhand -16.4919 25.0721
rfingers 7.12502
rthumb 9.72554 -4.68339
lclavicle 2.65253e-014 5.1684e-015
lhumerus -39.9996 4.3894 83.894
lradius 36.0842
lwrist -26.1688
lhand 1.63492 39.8374
lfingers 7.12502
lthumb 27.1554 67.9036
rfemur -36.7806 0.027283 21.2784
rtibia 67.4609
rfoot 0.937214 -14.1369
rtoes -2.00509
lfemur -16.0972 -21.6948 -29.9133
ltibia 22.2407
lfoot -8.63109 14.9858
ltoes -4.5779
716
root 19.2501 16.1347 -17.845 -169.651 -13.6247 180.373
lowerback -6.19039 1.02092 -0.257056
upperback -5.18363 1.0198 0.687164
thorax -1.88869 0.375652 0.900474
lowerneck -3.99141 15.355 6.16359
upperneck 20.6763 19.8374 -0.488118
head 7.71521 9.60459 0.492201
rclavicle 4.06639e-014 8.54774e-015
rhumerus -47.3016 4.44626 -76.0087
rradius 25.1812
rwrist -9.63434
rhand -16.5428 25.0961
rfingers 7.12502
rthumb 9.6765 -4.66168
lclavicle 4.06639e-014 8.54774e-015
lhumerus -39.9968 4.29436 84.0637
lradius 36.6217
lwrist -25.5111
lhand 1.94801 39.6975
lfingers 7.12502
lthumb 27.4549 67.7166
rfemur -37.3415 0.441049 20.9028
rtibia 65.7003
rfoot -0.235215 -15.1416
rtoes -0.859531
lfemur -15.6878 -21.9618 -30.2255
ltibia 22.4128
lfoot -9.25748 14.6745
ltoes -6.14236
717
root 19.2277 16.1217 -17.9762 -169.472 -14.5863 180.252
lowerback -6.30761 0.852964 -0.537612
upperback -5.27359 0.799707 0.722064
thorax -1.91864 0.270795 1.08509
lowerneck -3.70223 15.2621 6.34528
upperneck 20.4415 19.7554 -0.766335
head 7.63388 9.56528 0.344988
rclavicle 1.28837e-014 7.95139e-016
rhumerus -47.6147 3.89851 -75.6285
rradius 25.0313
rwrist -9.37706
rhand -16.1556 27.2751
rfingers 7.12502
rthumb 10.0501 -2.4649
lclavicle 1.28837e-014 7.95139e-016
lhumerus -39.9532 4.28995 84.2062
lradius 37.088
lwrist -25.2219
lhand 1.42968 39.552
lfingers 7.12502
lthumb 26.959 67.6487
rfemur -37.8018 0.986874 20.5787
rtibia 63.7802
rfoot -0.891337 -15.876
rtoes -1.31763
lfemur -15.3548 -22.3755 -30.3589
ltibia 22.6838
lfoot -11.2451 14.1724
ltoes 0.918316
